<?xml version="1.0" encoding="UTF-8"?>
<!DOCTYPE svg PUBLIC "-//W3C//DTD SVG 1.1//EN" "http://www.w3.org/Graphics/SVG/1.1/DTD/svg11.dtd">
<!-- Creator: CorelDRAW -->
<svg xmlns="http://www.w3.org/2000/svg" xml:space="preserve" width="150.545mm" height="149.803mm" version="1.1" style="shape-rendering:geometricPrecision; text-rendering:geometricPrecision; image-rendering:optimizeQuality; fill-rule:evenodd; clip-rule:evenodd"
viewBox="0 0 13845.72 13777.54"
 xmlns:xlink="http://www.w3.org/1999/xlink"
 xmlns:xodm="http://www.corel.com/coreldraw/odm/2003">
 <defs>
  <style type="text/css">
   <![CDATA[
    .str0 {stroke:#FEFEFE;stroke-width:18.39;stroke-miterlimit:22.9256}
    .fil1 {fill:#FEFEFE}
    .fil0 {fill:#373435}
    .fil2 {fill:#7C67AC}
    .fil3 {fill:#373435;fill-rule:nonzero}
   ]]>
  </style>
 </defs>
 <g id="Layer_x0020_1">
  <metadata id="CorelCorpID_0Corel-Layer"/>
  <g id="_2178759648176">
   <path class="fil0" d="M126.14 3449.19c4208.4,-4551.55 9370.86,-4654.16 13628.66,24.11 122.84,133.3 119.62,177.49 0,315.35 -3712.91,4238.52 -9026.63,4995.53 -13628.66,75.83 -167.36,-159.42 -169,-253.47 0,-415.29z"/>
   <path class="fil1 str0" d="M1163.85 3477.41c3612.85,-4017.29 7814.09,-4118.23 11547.85,20.43 150.11,163.91 122.72,188.21 21.36,305.01 -3439.31,3811.66 -7642.29,4307.88 -11569.22,26.45 -158.03,-162.12 -152.21,-188.39 0,-351.89z"/>
   <circle class="fil2" cx="6922.87" cy="3633.99" r="2676.34"/>
   <circle class="fil0" cx="6922.87" cy="3633.99" r="1088.96"/>
   <circle class="fil1" cx="7820.47" cy="2568.7" r="676.49"/>
  </g>
  <path class="fil3" d="M2478.17 13598.16c0,22.07 -6.37,41.4 -19.13,56.57 -12.76,16.55 -33.49,28.98 -65.37,38.64 -30.3,9.66 -71.76,17.93 -122.77,24.83 -52.63,6.9 -116.41,9.67 -194.54,9.67 -74.94,0 -138.72,-2.77 -191.34,-9.67 -52.63,-6.9 -95.68,-15.18 -125.97,-24.83 -31.89,-9.66 -52.62,-22.08 -65.37,-38.64 -12.76,-15.18 -19.14,-34.5 -19.14,-56.57l0 -5022.56c0,-22.07 6.38,-41.4 20.74,-56.57 14.35,-16.55 38.26,-28.97 70.16,-38.64 33.48,-9.66 74.94,-17.93 125.96,-24.83 51.03,-6.9 113.21,-9.66 184.96,-9.66 78.13,0 141.91,2.76 194.54,9.66 51.02,6.9 92.47,15.18 122.77,24.83 31.89,9.67 52.62,22.08 65.37,38.64 12.76,15.18 19.13,34.5 19.13,56.57l0 5022.56zm3979.9 -3399.89c0,59.34 -1.6,109.01 -4.78,149.03 -3.19,40.01 -9.56,71.75 -19.13,95.2 -7.97,23.46 -20.74,40.02 -35.09,52.44 -12.76,12.42 -31.9,17.93 -57.4,17.93 -25.51,0 -55.81,-5.52 -90.89,-17.93 -36.67,-12.43 -76.53,-24.84 -121.18,-35.88 -44.63,-12.42 -95.66,-23.46 -151.47,-34.5 -55.81,-11.04 -116.4,-16.55 -181.79,-16.55 -78.12,0 -154.66,13.8 -229.61,40.02 -73.35,27.59 -153.07,71.75 -234.39,135.22 -82.91,62.1 -169.02,144.88 -259.9,246.99 -89.29,103.49 -189.75,229.05 -298.18,378.07l0 2393.99c0,22.07 -6.38,40.02 -19.13,55.19 -12.76,13.8 -31.9,27.6 -60.59,38.64 -28.71,9.66 -66.97,17.93 -118,23.45 -49.43,5.52 -113.21,8.29 -191.35,8.29 -76.53,0 -138.72,-2.77 -188.14,-8.29 -51.03,-5.52 -90.89,-13.8 -119.59,-23.45 -30.3,-11.04 -51.03,-24.84 -62.18,-38.64 -11.17,-15.18 -15.95,-33.12 -15.95,-55.19l0 -3639.97c0,-22.08 4.78,-40.02 14.35,-55.19 9.56,-13.8 27.1,-27.6 55.81,-40.02 28.69,-12.43 63.78,-20.7 108.43,-24.84 43.05,-4.14 102.04,-5.52 173.8,-5.52 68.56,0 125.96,1.38 170.62,5.52 46.24,4.14 81.31,12.42 106.83,24.84 23.91,12.42 43.05,26.21 54.21,40.02 9.56,15.18 15.95,33.11 15.95,55.19l0 529.84c114.8,-146.26 223.23,-264.92 323.68,-357.37 102.05,-91.07 197.72,-164.2 287.01,-216.63 90.88,-52.43 180.18,-88.31 267.88,-109 89.29,-20.7 178.58,-30.36 269.46,-30.36 39.87,0 86.11,1.38 137.14,5.52 51.03,4.14 105.24,12.42 161.05,22.07 55.81,11.05 106.81,23.46 151.47,37.26 44.65,13.8 76.55,26.22 95.68,40.02 19.13,13.8 31.9,26.22 36.68,38.64 6.37,12.42 12.75,27.59 17.53,45.53 4.78,19.31 7.97,46.91 9.56,82.78 1.6,37.26 1.6,85.55 1.6,147.64zm1651.91 3404.03c0,22.07 -6.38,40.02 -19.13,55.19 -12.76,13.8 -31.9,27.6 -60.59,38.64 -28.71,9.66 -66.97,17.93 -118,23.45 -49.43,5.52 -113.21,8.29 -191.35,8.29 -76.53,0 -138.72,-2.77 -188.14,-8.29 -51.03,-5.52 -90.89,-13.8 -119.59,-23.45 -30.29,-11.04 -51.03,-24.84 -62.18,-38.64 -11.17,-15.18 -15.95,-33.12 -15.95,-55.19l0 -3639.97c0,-19.32 4.78,-37.26 15.95,-52.43 11.16,-16.56 31.9,-30.36 62.18,-41.4 28.7,-9.66 68.56,-17.94 119.59,-23.46 49.43,-5.52 111.62,-8.28 188.14,-8.28 78.14,0 141.92,2.76 191.35,8.28 51.03,5.52 89.29,13.8 118,23.46 28.69,11.04 47.83,24.83 60.59,41.4 12.75,15.18 19.13,33.11 19.13,52.43l0 3639.97zm86.1 -4866.63c0,157.3 -35.08,263.54 -103.64,320.11 -68.56,56.57 -194.53,85.55 -379.5,85.55 -181.77,0 -306.13,-27.6 -373.11,-82.79 -66.96,-55.19 -100.45,-160.06 -100.45,-314.6 0,-157.3 35.08,-263.55 103.64,-320.12 68.56,-56.57 194.53,-85.55 379.5,-85.55 181.77,0 306.13,27.6 373.11,82.79 66.96,55.19 100.45,160.06 100.45,314.6zm3975.11 3873.16c0,186.27 -39.86,351.85 -119.59,498.11 -79.72,144.88 -191.34,267.68 -338.04,367.03 -146.68,99.35 -320.48,175.24 -522.99,226.29 -202.51,51.05 -425.74,77.27 -668.1,77.27 -149.88,0 -291.79,-9.67 -427.31,-30.36 -135.55,-19.31 -256.73,-44.16 -365.15,-75.89 -106.83,-30.35 -197.71,-62.09 -272.67,-95.21 -74.94,-33.11 -129.15,-63.47 -162.62,-89.68 -35.09,-26.22 -60.61,-64.86 -74.96,-113.15 -15.94,-48.29 -23.91,-114.52 -23.91,-198.69 0,-51.05 3.19,-93.83 9.56,-128.32 6.38,-35.88 14.35,-63.48 22.32,-85.55 9.56,-22.08 23.92,-37.26 39.87,-46.91 17.53,-9.66 36.68,-13.8 58.99,-13.8 33.5,0 84.52,17.93 151.49,55.19 66.96,35.87 149.88,75.89 247.14,118.66 97.27,42.78 213.67,82.79 347.6,118.67 133.95,37.25 287,55.19 460.81,55.19 130.75,0 248.74,-12.43 353.99,-37.26 106.83,-23.46 197.71,-59.33 275.85,-107.62 78.13,-46.91 137.13,-107.62 180.18,-180.76 41.45,-73.13 62.18,-160.06 62.18,-260.78 0,-102.11 -30.3,-189.04 -90.89,-258.03 -60.59,-70.37 -140.31,-132.46 -239.18,-186.27 -100.45,-53.81 -212.07,-102.11 -336.44,-143.5 -124.37,-41.4 -251.93,-85.55 -384.28,-131.09 -130.75,-46.91 -259.89,-97.97 -385.87,-155.92 -125.96,-57.95 -237.58,-128.33 -338.03,-212.49 -98.85,-84.17 -178.59,-183.52 -239.18,-299.43 -60.59,-115.9 -90.88,-253.89 -90.88,-416.7 0,-142.12 31.89,-278.73 95.66,-409.8 63.78,-131.09 159.46,-245.61 287.01,-343.58 129.16,-97.97 288.6,-178 479.95,-237.33 191.34,-59.34 414.57,-88.31 671.3,-88.31 111.62,0 223.23,8.28 336.44,24.83 111.62,16.56 212.06,38.64 302.95,63.48 90.89,24.83 167.42,52.43 231.21,81.4 63.77,30.36 113.21,55.19 145.1,78.65 33.48,22.07 54.22,41.4 65.37,56.57 11.16,16.55 19.13,34.5 23.91,55.19 4.78,19.32 9.56,44.16 14.35,73.14 4.79,30.35 6.39,66.23 6.39,109 0,45.53 -1.6,85.55 -6.39,118.66 -4.78,33.12 -12.76,60.72 -23.91,81.41 -11.16,22.08 -23.91,37.26 -39.86,46.91 -15.95,9.66 -33.49,13.8 -51.03,13.8 -28.7,0 -68.56,-15.18 -122.78,-45.53 -52.62,-28.97 -121.18,-60.71 -205.68,-95.21 -84.51,-34.49 -183.38,-66.23 -296.59,-95.21 -113.21,-30.35 -243.95,-45.53 -390.65,-45.53 -130.75,0 -247.15,12.42 -346.01,38.63 -100.45,24.84 -181.77,60.72 -245.55,107.63 -63.78,46.91 -113.21,102.11 -145.09,166.95 -33.49,63.47 -49.43,133.85 -49.43,208.35 0,104.87 31.89,193.18 94.07,264.93 62.19,71.75 141.92,133.84 242.38,187.65 98.85,53.82 213.65,102.12 341.22,146.26 127.55,42.78 256.71,86.93 389.06,132.47 132.35,46.91 263.09,97.97 392.25,154.54 129.16,56.57 243.96,125.57 342.82,205.59 100.45,81.41 180.18,178 240.77,291.14 60.59,113.15 90.89,248.37 90.89,404.29z"/>
 </g>
</svg>
